<svg width="200" height="100" viewBox="0 0 200 100" xmlns="http://www.w3.org/2000/svg">
  <defs>
    <linearGradient id="jaGrad" x1="0%" y1="0%" x2="100%" y2="100%">
      <stop offset="0%" stop-color="#009b3a" />
      <stop offset="50%" stop-color="#fed100" />
      <stop offset="100%" stop-color="#000000" />
    </linearGradient>
  </defs>
  <!-- Simplified Jamaica Map Outline -->
  <path d="M5,40 C15,30 25,32 35,28 C45,25 60,30 75,28 C85,26 95,20 110,25 C125,30 145,25 160,20 C175,15 190,25 195,35 C190,45 180,45 165,50 C150,55 135,50 115,55 C100,60 85,65 70,60 C55,55 45,60 30,55 C15,50 5,50 5,40 Z" fill="url(#jaGrad)" stroke="#111" stroke-width="2"/>
</svg>
